<?xml version="1.0" encoding="utf-8"?>
<!-- Generator: Adobe Illustrator 16.0.0, SVG Export Plug-In . SVG Version: 6.00 Build 0)  -->
<!DOCTYPE svg PUBLIC "-//W3C//DTD SVG 1.1//EN" "http://www.w3.org/Graphics/SVG/1.1/DTD/svg11.dtd">
<svg version="1.1" id="레이어_1" xmlns="http://www.w3.org/2000/svg" xmlns:xlink="http://www.w3.org/1999/xlink" x="0px"
	 y="0px" width="70px" height="70px" viewBox="0 0 70 70" enable-background="new 0 0 70 70" xml:space="preserve">
<g>
	<path fill="none" stroke="#FFFFFF" stroke-width="7" stroke-miterlimit="10" d="M27.39,45.347c-9.86,1.315-17,5.16-17,9.704
		c0,5.627,10.959,10.188,24.478,10.188c13.518,0,24.477-4.562,24.477-10.188c0-4.467-6.899-8.258-16.499-9.634"/>
	<path fill="#FFFFFF" d="M53.482,21.156c0-0.293-0.012-0.585-0.032-0.875c0.021-0.351,0.032-0.703,0.032-1.058
		C53.482,9.159,45.323,1,35.259,1c-9.667,0-17.571,7.529-18.181,17.041c-1.522,7.569,2.664,15.972,6.522,22.303
		c0.516,0.846,11.09,15.877,11.276,15.665C53.775,34.452,53.482,20.572,53.482,21.156z M35.118,29.723
		c-5.485,0-9.931-4.447-9.931-9.932s4.446-9.931,9.931-9.931c5.483,0,9.931,4.446,9.931,9.931S40.602,29.723,35.118,29.723z"/>
</g>
</svg>
